Coordinates
version=1
nRows=14
nColumns=38
inDegrees=no

Units are S.I. units (second, meters, Newtons, ...)
If the header above contains a line with 'inDegrees', this indicates whether rotational values are in degrees (yes) or radians (no).

endheader
time	pelvis_tilt	pelvis_list	pelvis_rotation	pelvis_tx	pelvis_ty	pelvis_tz	hip_flexion_r	hip_adduction_r	hip_rotation_r	knee_angle_r	ankle_angle_r	subtalar_angle_r	mtp_angle_r	hip_flexion_l	hip_adduction_l	hip_rotation_l	knee_angle_l	ankle_angle_l	subtalar_angle_l	mtp_angle_l	lumbar_extension	lumbar_bending	lumbar_rotation	arm_flex_r	arm_add_r	arm_rot_r	elbow_flex_r	pro_sup_r	wrist_flex_r	wrist_dev_r	arm_flex_l	arm_add_l	arm_rot_l	elbow_flex_l	pro_sup_l	wrist_flex_l	wrist_dev_l
5	0.809505	1.49645	0.621919	0.704258	1.71074	0.972453	0.303244	-0.0288791	-0.03098	0.929371	0.102979	0	0	0.196445	-0.0174416	-0.183097	0.155711	-0.0480412	0	0	0.0361947	0.0981009	-0.0517561	0.838023	-0.0777653	-1.5708	0	0	0	0	0.157032	-0.258151	-0.051753	1.69922	0.805494	0	0
5.01	0.813252	1.49474	0.618042	0.70394	1.71459	0.972856	0.304438	-0.0273171	-0.0403879	0.903147	0.109195	0	0	0.191112	-0.0176129	-0.182079	0.15238	-0.0455364	0	0	0.0365825	0.0989468	-0.0524503	0.839364	-0.0767679	-1.5708	0	0	0	0	0.157129	-0.256385	-0.0530498	1.69812	0.805068	0	0
5.02	0.820802	1.49297	0.610509	0.703548	1.71846	0.973261	0.304637	-0.0254404	-0.0502079	0.875737	0.11472	0	0	0.185615	-0.0180804	-0.18138	0.148898	-0.0430574	0	0	0.036632	0.0999084	-0.0534101	0.840269	-0.0770988	-1.5708	0	0	0	0	0.156994	-0.254553	-0.0546924	1.69717	0.804768	0	0
5.03	0.833373	1.49122	0.598206	0.7032	1.72211	0.973717	0.3035	-0.0235479	-0.0609497	0.847113	0.120223	0	0	0.179988	-0.0187156	-0.181124	0.145827	-0.0406865	0	0	0.0362943	0.101011	-0.0549831	0.84039	-0.0777824	-1.5708	0	0	0	0	0.156537	-0.252489	-0.0567811	1.69631	0.804616	0	0
5.04	0.837893	1.49029	0.590934	0.704558	1.72598	0.974264	0.30149	-0.021419	-0.0766213	0.817741	0.129477	0	0	0.172907	-0.0212368	-0.183643	0.141884	-0.0369887	0	0	0.0375231	0.0995911	-0.0638381	0.838675	-0.0554664	-1.5708	0	0	0	0	0.151931	-0.256078	-0.0606008	1.68827	0.804647	0	0
5.05	0.859922	1.48793	0.570599	0.704242	1.72957	0.974767	0.298534	-0.0183344	-0.0889352	0.787885	0.133454	0	0	0.167476	-0.0230298	-0.181631	0.13902	-0.0350302	0	0	0.0368988	0.101972	-0.0663559	0.839464	-0.0547447	-1.5708	0	0	0	0	0.151555	-0.253846	-0.0625412	1.68697	0.804267	0	0
5.06	0.885286	1.48516	0.547394	0.703978	1.73296	0.975299	0.295015	-0.0143685	-0.100944	0.758157	0.136027	0	0	0.162525	-0.0254723	-0.179589	0.137079	-0.0329491	0	0	0.0361662	0.104794	-0.0691842	0.839929	-0.0542087	-1.5708	0	0	0	0	0.151165	-0.251585	-0.0645597	1.68581	0.803991	0	0
5.07	0.972903	1.48227	0.462725	0.703006	1.73692	0.975201	0.2874	-0.00971931	-0.113473	0.732312	0.140863	0	0	0.152922	-0.0290551	-0.178491	0.13556	-0.0263517	0	0	0.015496	0.118168	-0.0404855	0.82093	-0.0804297	-1.5708	0	0	0	0	0.175081	-0.243635	-0.0365759	1.67479	0.802149	0	0
5.08	0.92659	1.47951	0.51076	0.703618	1.73962	0.976331	0.288327	-0.0054114	-0.121616	0.701432	0.139394	0	0	0.154223	-0.0306188	-0.175127	0.134833	-0.0288038	0	0	0.0354218	0.109488	-0.0726305	0.838337	-0.0563832	-1.5708	0	0	0	0	0.153059	-0.248502	-0.0626282	1.68077	0.803908	0	0
5.09	0.965739	1.47707	0.474856	0.703497	1.74276	0.976921	0.282981	5.49742e-06	-0.13107	0.674913	0.140327	0	0	0.148691	-0.0337391	-0.171872	0.134283	-0.0264829	0	0	0.0322657	0.11264	-0.0775183	0.839956	-0.0551824	-1.5708	0	0	0	0	0.151642	-0.246276	-0.0687371	1.68287	0.804188	0	0
5.1	0.994801	1.4745	0.448578	0.703466	1.74574	0.977449	0.278712	0.00555239	-0.138822	0.650402	0.140985	0	0	0.14383	-0.0367476	-0.169041	0.133899	-0.0240491	0	0	0.0304532	0.115362	-0.0801206	0.840815	-0.0550023	-1.5708	0	0	0	0	0.152432	-0.244538	-0.0707045	1.6817	0.804365	0	0
5.11	1.076	1.47084	0.370589	0.702082	1.74857	0.977324	0.271124	0.0121862	-0.145854	0.631262	0.143993	0	0	0.134436	-0.0411595	-0.167814	0.133761	-0.0170546	0	0	0.00935713	0.129366	-0.0507434	0.823638	-0.0820266	-1.5708	0	0	0	0	0.177465	-0.236846	-0.0429082	1.67038	0.803183	0	0
5.12	1.03428	1.46886	0.413735	0.703584	1.75176	0.978259	0.273053	0.0174301	-0.148583	0.607733	0.141173	0	0	0.136312	-0.0428876	-0.165135	0.133824	-0.0186898	0	0	0.0292455	0.120316	-0.0821471	0.840952	-0.0563553	-1.5708	0	0	0	0	0.157217	-0.242778	-0.0673889	1.67438	0.805366	0	0
5.13	1.06648	1.46649	0.38443	0.703688	1.75449	0.978738	0.269072	0.0234187	-0.152471	0.589205	0.140501	0	0	0.130963	-0.0462358	-0.162651	0.133416	-0.0161545	0	0	0.0261335	0.123148	-0.0856002	0.842917	-0.055294	-1.5708	0	0	0	0	0.157861	-0.241509	-0.0715886	1.67436	0.805994	0	0
